<svg width="15" height="20" viewBox="0 0 15 20" fill="none" xmlns="http://www.w3.org/2000/svg">
<g id="Group">
<g id="Group_2">
<path id="Vector" d="M7.01768 0C10.3862 0 13.4739 2.24566 14.0354 5.61414C14.3161 6.73697 14.3161 8.14051 13.7547 9.26334C13.1932 10.9476 12.3511 12.3511 11.509 13.7547C10.6669 15.4389 9.54405 16.8424 8.42122 18.5267C7.5791 19.6495 6.17556 19.6495 5.61414 18.5267C3.9299 16.0003 1.96496 13.4739 0.84213 10.6669C0.561423 9.82475 0 8.98263 0 7.8598C0 7.01768 -4.28744e-06 6.17556 0.280703 5.33344C1.12282 2.52636 3.08778 0.842122 5.89485 0C5.89485 0 6.45627 0 7.01768 0ZM7.01768 4.21061C5.33344 4.21061 3.92991 5.61414 3.92991 7.29839C3.92991 8.98263 5.33344 10.3862 7.01768 10.3862C8.70192 10.3862 10.1055 8.98263 10.1055 7.29839C9.82475 5.61414 8.70192 4.21061 7.01768 4.21061Z" fill="#A8C666"/>
</g>
</g>
</svg>
